<svg xmlns="http://www.w3.org/2000/svg" width="1600" height="1000" viewBox="0 0 1600 1000">
  <rect width="1600" height="1000" fill="#061729"/>
  <text x="60" y="70" fill="#7fe8ff" font-family="Arial, sans-serif" font-size="42" font-weight="700">NEXUS DOGS GO — PROTOTYPE FLOW</text>
  <text x="60" y="110" fill="#9ab6c9" font-family="Arial, sans-serif" font-size="18">Mapa de implementação baseado no protótipo visual fornecido ao projeto</text>
  <g font-family="Arial, sans-serif" font-size="18" text-anchor="middle">
    <g transform="translate(60 155)"><rect width="250" height="300" rx="28" fill="#0c2941" stroke="#24c9ff" stroke-width="3"/><text x="125" y="50" fill="white" font-weight="700">HOME</text><circle cx="125" cy="125" r="48" fill="#123b58" stroke="#6be8ff"/><text x="125" y="132" fill="#6be8ff">LOGO</text><rect x="35" y="205" width="180" height="50" rx="18" fill="#32bb47"/><text x="125" y="237" fill="white">JOGAR</text></g>
    <g transform="translate(365 155)"><rect width="250" height="300" rx="28" fill="#0c2941" stroke="#24c9ff" stroke-width="3"/><text x="125" y="45" fill="white" font-weight="700">ESCOLHER CÃO</text><rect x="25" y="75" width="90" height="80" rx="15" fill="#164463"/><rect x="135" y="75" width="90" height="80" rx="15" fill="#5a2525"/><rect x="25" y="170" width="90" height="80" rx="15" fill="#185b3b"/><rect x="135" y="170" width="90" height="80" rx="15" fill="#5b2862"/></g>
    <g transform="translate(670 155)"><rect width="250" height="300" rx="28" fill="#0c2941" stroke="#24c9ff" stroke-width="3"/><text x="125" y="45" fill="white" font-weight="700">MAPA GPS</text><path d="M30 85 C80 45,160 120,220 80 M25 150 C90 100,160 220,225 155 M45 250 C110 180,170 270,220 210" stroke="#72d08b" stroke-width="16" fill="none"/><circle cx="90" cy="125" r="12" fill="#3ac6ff"/><circle cx="180" cy="205" r="12" fill="#d95cff"/><circle cx="130" cy="235" r="12" fill="#4ae98a"/></g>
    <g transform="translate(975 155)"><rect width="250" height="300" rx="28" fill="#0c2941" stroke="#24c9ff" stroke-width="3"/><text x="125" y="45" fill="white" font-weight="700">CAPTURA</text><circle cx="125" cy="145" r="70" fill="#24683b" stroke="#8df7a7"/><text x="125" y="152" fill="white">CÃO 3D</text><circle cx="125" cy="250" r="32" fill="#e44343" stroke="white" stroke-width="6"/></g>
    <g transform="translate(1280 155)"><rect width="250" height="300" rx="28" fill="#f3fbff" stroke="#24c9ff" stroke-width="3"/><text x="125" y="45" fill="#0b2a43" font-weight="700">SOCIAL</text><circle cx="80" cy="110" r="32" fill="#d7e8f0"/><rect x="30" y="165" width="190" height="90" rx="15" fill="#dceff6"/></g>
    <g transform="translate(60 520)"><rect width="250" height="300" rx="28" fill="#0c2941" stroke="#24c9ff" stroke-width="3"/><text x="125" y="45" fill="white" font-weight="700">COLEÇÃO</text><g fill="#173f5c"><rect x="25" y="75" width="58" height="70" rx="10"/><rect x="96" y="75" width="58" height="70" rx="10"/><rect x="167" y="75" width="58" height="70" rx="10"/><rect x="25" y="160" width="58" height="70" rx="10"/><rect x="96" y="160" width="58" height="70" rx="10"/><rect x="167" y="160" width="58" height="70" rx="10"/></g></g>
    <g transform="translate(365 520)"><rect width="250" height="300" rx="28" fill="#0c2941" stroke="#24c9ff" stroke-width="3"/><text x="125" y="45" fill="white" font-weight="700">MISSÕES</text><g fill="#14354e"><rect x="20" y="75" width="210" height="40" rx="10"/><rect x="20" y="130" width="210" height="40" rx="10"/><rect x="20" y="185" width="210" height="40" rx="10"/><rect x="20" y="240" width="210" height="40" rx="10"/></g></g>
    <g transform="translate(670 520)"><rect width="250" height="300" rx="28" fill="#0c2941" stroke="#24c9ff" stroke-width="3"/><text x="125" y="45" fill="white" font-weight="700">BATALHA</text><circle cx="70" cy="155" r="45" fill="#264f68"/><circle cx="180" cy="155" r="45" fill="#5c2d2d"/><text x="125" y="165" fill="#ffdc55" font-size="32">VS</text><rect x="20" y="240" width="65" height="42" rx="10" fill="#e94545"/><rect x="93" y="240" width="65" height="42" rx="10" fill="#3487e9"/><rect x="166" y="240" width="65" height="42" rx="10" fill="#e4b429"/></g>
    <g transform="translate(975 520)"><rect width="250" height="300" rx="28" fill="#0c2941" stroke="#24c9ff" stroke-width="3"/><text x="125" y="45" fill="white" font-weight="700">INVENTÁRIO</text><g fill="#14354e"><rect x="20" y="75" width="210" height="38" rx="10"/><rect x="20" y="125" width="210" height="38" rx="10"/><rect x="20" y="175" width="210" height="38" rx="10"/><rect x="20" y="225" width="210" height="38" rx="10"/></g></g>
    <g transform="translate(1280 520)"><rect width="250" height="300" rx="28" fill="#f3fbff" stroke="#24c9ff" stroke-width="3"/><text x="125" y="45" fill="#0b2a43" font-weight="700">EVENTOS</text><rect x="20" y="75" width="210" height="75" rx="15" fill="#f2a12c"/><rect x="20" y="170" width="210" height="38" rx="10" fill="#dceff6"/><rect x="20" y="220" width="210" height="38" rx="10" fill="#dceff6"/></g>
  </g>
  <rect x="60" y="875" width="1470" height="70" rx="20" fill="#0c2941" stroke="#24c9ff" stroke-width="2"/>
  <text x="795" y="918" fill="#7fe8ff" text-anchor="middle" font-family="Arial, sans-serif" font-size="22">GPS • CÃES 3D • CAPTURA • MISSÕES • BATALHAS • AR • SOCIAL • EVENTOS</text>
</svg>
